<svg width="19" height="14" viewBox="0 0 19 14" fill="none" xmlns="http://www.w3.org/2000/svg">
<path fill-rule="evenodd" clip-rule="evenodd" d="M11.15 13.5988C11.3 13.7488 11.49 13.8188 11.68 13.8188C11.87 13.8188 12.06 13.7488 12.21 13.5988L18.28 7.52877C18.57 7.23877 18.57 6.75877 18.28 6.46877L12.21 0.398774C11.92 0.108774 11.44 0.108774 11.15 0.398774C10.86 0.688774 10.86 1.16877 11.15 1.45877L15.94 6.24878L0.75 6.24878C0.34 6.24878 0 6.58878 0 6.99878C0 7.40878 0.34 7.74878 0.75 7.74878L15.94 7.74878L11.15 12.5388C10.86 12.8288 10.86 13.3088 11.15 13.5988Z" fill="#FBFAF9"/>
</svg>
