<svg width="19" height="14" viewBox="0 0 19 14" fill="none" xmlns="http://www.w3.org/2000/svg">
<path d="M7.31994 0.181226C7.50994 0.181226 7.69995 0.251225 7.84995 0.401225C8.13994 0.691225 8.13994 1.17122 7.84994 1.46122L2.30994 7.00122L7.84994 12.5412C8.13994 12.8312 8.13994 13.3112 7.84994 13.6012C7.55994 13.8912 7.07994 13.8912 6.78994 13.6012L0.719943 7.53122C0.429943 7.24122 0.429943 6.76123 0.719943 6.47123L6.78994 0.401225C6.93994 0.251225 7.12994 0.181226 7.31994 0.181226Z" fill="#004D99"/>
<path d="M1.41994 6.25122L18.2499 6.25122C18.6599 6.25122 18.9999 6.59122 18.9999 7.00122C18.9999 7.41122 18.6599 7.75122 18.2499 7.75122L1.41994 7.75122C1.00994 7.75122 0.669939 7.41122 0.669939 7.00122C0.669939 6.59122 1.00994 6.25122 1.41994 6.25122Z" fill="#004D99"/>
</svg>
