<svg xmlns="http://www.w3.org/2000/svg" width="45.923" height="45.923"><path d="M45.494 44.443c-.004.387-.025.611-.025.611l-.838.838s-.225.021-.612.025c-.2.01-.43.002-.696-.01-.266-.013-.584-.013-.898-.057-.65-.064-1.438-.146-2.242-.338a17.613 17.613 0 01-2.582-.764 17.611 17.611 0 01-2.688-1.271c-.891-.515-1.764-1.123-2.502-1.917-.748-.784-1.348-1.77-1.928-2.797-.58-1.03-1.177-2.067-1.861-3.019a156.515 156.515 0 01-2.787-3.988 18.596 18.596 0 005.721-5.352c1.252.853 2.512 1.731 3.768 2.64.951.684 1.988 1.28 3.019 1.86 1.028.582 2.012 1.181 2.797 1.928.794.738 1.401 1.611 1.917 2.502.52.886.936 1.797 1.271 2.688.343.883.584 1.766.764 2.582.191.805.273 1.592.338 2.242.044.314.044.633.057.898.009.269.017.496.007.699zM24.429 29.652a15.835 15.835 0 01-8.072 2.213c-8.8 0-15.933-7.133-15.933-15.933C.424 7.134 7.558 0 16.357 0s15.932 7.134 15.932 15.933c0 3.369-1.051 6.49-2.836 9.063a15.988 15.988 0 01-5.024 4.656zm-3.858-6.225a8.614 8.614 0 002.638-2.31 8.55 8.55 0 001.749-5.183 8.6 8.6 0 10-17.201 0 8.602 8.602 0 008.601 8.602 8.59 8.59 0 004.213-1.109z"/></svg>